<?xml version="1.0" encoding="iso-8859-1"?>
<!-- Generator: Adobe Illustrator 19.0.0, SVG Export Plug-In . SVG Version: 6.00 Build 0)  -->
<svg version="1.1" id="Layer_1" xmlns="http://www.w3.org/2000/svg" xmlns:xlink="http://www.w3.org/1999/xlink" x="0px" y="0px"
	 viewBox="0 0 512.159 512.159" style="enable-background:new 0 0 512.159 512.159;" xml:space="preserve">
<g>
	<g>
		<g>
			<path d="M343.686,329.434c-19.994,3.115-43.725,1.758-59.469-15.881c-6.733-7.535-19.14-22.059-34.825-40.448
				C71.387,64.585,64.262,69.236,53.118,76.361C51.035,77.82,2.31,112.884,0.023,178.215c-0.427,12.16,5.077,23.509,14.353,30.899
				c28.817,35.166,45.355,80.922,45.355,125.739v94.729c0,4.71,3.814,8.533,8.533,8.533h34.133c4.719,0,8.533-3.823,8.533-8.533
				V265.502c14.131,11.759,28.382,25.737,41.856,42.428c69.094,124.774,111.189,130.603,120.371,130.185
				c0.939,0.026,3.601,0.068,7.748,0.068c7.322,0,19.422-0.154,34.825-0.819v-7.782c0.188-33.741,9.95-69.513,26.778-98.185
				L343.686,329.434z M93.864,421.048H76.798v-86.195c0-38.417-11.153-77.474-31.215-110.993c0.649,0.299,1.314,0.614,1.971,0.93
				c2.338,1.126,4.745,2.313,7.211,3.576c0.811,0.418,1.604,0.811,2.432,1.246c3.422,1.801,6.955,3.738,10.573,5.828
				c0.495,0.282,1.007,0.589,1.502,0.879c3.763,2.193,7.586,4.514,11.511,7.04c0.043,0.034,0.085,0.06,0.128,0.085
				c4.139,2.671,8.371,5.555,12.646,8.619c0.102,0.077,0.205,0.154,0.307,0.222V421.048z"/>
			<path d="M506.564,363.465c-14.174-21.222-47.394-34.628-98.722-39.851c-13.517-1.382-27.469-0.87-41.617,1.425l-9.045,15.07
				c-15.309,26.086-24.209,58.743-24.38,89.515v6.861c40.781-2.483,97.596-8.465,155.435-22.758
				c9.916-2.44,17.783-9.489,21.598-19.328C513.843,384.09,512.615,372.528,506.564,363.465z"/>
		</g>
	</g>
</g>
<g>
</g>
<g>
</g>
<g>
</g>
<g>
</g>
<g>
</g>
<g>
</g>
<g>
</g>
<g>
</g>
<g>
</g>
<g>
</g>
<g>
</g>
<g>
</g>
<g>
</g>
<g>
</g>
<g>
</g>
</svg>
